HIERARCHY
ROOT Hips
{
	OFFSET 0.000000 8.830580 0.000000
	CHANNELS 6 Xposition Yposition Zposition Zrotation Yrotation Xrotation 
	JOINT Spine
	{
		OFFSET 0.000000 0.010000 0.000000
		CHANNELS 3 Zrotation Yrotation Xrotation
		JOINT Spine1
		{
			OFFSET 0.000000 2.459130 0.000000
			CHANNELS 3 Zrotation Yrotation Xrotation
			JOINT Neck
			{
				OFFSET 0.000000 2.484630 0.000000
				CHANNELS 3 Zrotation Yrotation Xrotation
				JOINT Head_virtual
				{
					OFFSET 0.000000 0.000000 0.000000
					CHANNELS 3 Zrotation Yrotation Xrotation
					JOINT Head
					{
						OFFSET 0.000000 0.927525 0.000000
						CHANNELS 3 Zrotation Yrotation Xrotation
						End Site
						{
							OFFSET 0.000000 0.000000 0.000000
						}
					}
				}
				JOINT LeftUpArm_virtual
				{
					OFFSET 0.000000 0.000000 0.000000
					CHANNELS 3 Zrotation Yrotation Xrotation
					JOINT LeftUpArm
					{
						OFFSET 1.248820 0.000000 0.000000
						CHANNELS 3 Zrotation Yrotation Xrotation
						JOINT LeftForeArm
						{
							OFFSET 2.597580 0.000000 0.000000
							CHANNELS 3 Zrotation Yrotation Xrotation
							JOINT LeftHand
							{
								OFFSET 2.455420 0.000000 0.000000
								CHANNELS 3 Zrotation Yrotation Xrotation
								End Site
								{
									OFFSET 0.000000 0.000000 0.000000
								}
							}
						}
					}
				}
				JOINT RightUpArm_virtual
				{
					OFFSET -0.000000 -0.000000 -0.000000
					CHANNELS 3 Zrotation Yrotation Xrotation
					JOINT RightUpArm
					{
						OFFSET -1.248820 -0.000000 -0.000000
						CHANNELS 3 Zrotation Yrotation Xrotation
						JOINT RightForeArm
						{
							OFFSET -2.597580 -0.000000 -0.000000
							CHANNELS 3 Zrotation Yrotation Xrotation
							JOINT RightHand
							{
								OFFSET -2.455420 -0.000000 -0.000000
								CHANNELS 3 Zrotation Yrotation Xrotation
								End Site
								{
									OFFSET 0.000000 0.000000 0.000000
								}
							}
						}
					}
				}
			}
		}
	}
	JOINT LeftUpLeg
	{
		OFFSET 1.271939 0.000000 0.000000
		CHANNELS 3 Zrotation Yrotation Xrotation
		JOINT LeftLowLeg
		{
			OFFSET 0.000000 -4.342910 0.000000
			CHANNELS 3 Zrotation Yrotation Xrotation
			JOINT LeftFoot
			{
				OFFSET 0.000000 -4.487670 0.000000
				CHANNELS 3 Zrotation Yrotation Xrotation
				JOINT LeftToeBase
				{
					OFFSET 0.000000 0.000000 1.515070
					CHANNELS 3 Zrotation Yrotation Xrotation
					End Site
					{
						OFFSET 0.000000 0.000000 0.000000
					}
				}
			}
		}
	}
	JOINT RightUpLeg
	{
		OFFSET -1.271939 0.000000 0.000000
		CHANNELS 3 Zrotation Yrotation Xrotation
		JOINT RightLowLeg
		{
			OFFSET 0.000000 -4.342910 0.000000
			CHANNELS 3 Zrotation Yrotation Xrotation
			JOINT RightFoot
			{
				OFFSET 0.000000 -4.487670 0.000000
				CHANNELS 3 Zrotation Yrotation Xrotation
				JOINT RightToeBase
				{
					OFFSET 0.000000 0.000000 1.515070
					CHANNELS 3 Zrotation Yrotation Xrotation
					End Site
					{
						OFFSET 0.000000 0.000000 0.000000
					}
				}
			}
		}
	}
}
MOTION
Frames: 7
Frame Time: 0.041667
-17.526157 9.167781 47.392693 -174.370304 1.415683 -173.140697 3.013316 0.339892 -7.590464 3.396429 0.483951 -10.236169 0.000000 0.000000 0.000000 -7.573599 -3.227637 27.153274 12.563704 8.329751 -83.576974 -24.448900 8.811650 -10.471400 4.415410 -10.976700 -40.039799 0.000000 -48.182701 0.000000 75.344299 -1.860520 -22.429501 19.256399 -4.520050 -5.893260 -1.443230 3.372300 -46.311001 0.000000 47.549301 0.000000 -75.599197 6.676620 -18.528099 3.867066 -3.421698 -7.942560 0.000000 0.000000 5.504610 -8.369164 13.352717 4.903468 0.000000 0.000000 -42.108299 7.011006 1.140535 -8.729923 0.000000 0.000000 10.287200 8.523328 -16.416946 6.593077 0.000000 0.000000 -40.632900 
-17.524221 9.168039 47.386991 -174.383380 1.278995 -173.154147 3.005828 0.280096 -7.656112 3.420846 0.425440 -10.216384 0.000000 0.000000 0.000000 -7.632657 -3.148987 27.191701 12.551416 8.301041 -83.599914 -24.511999 8.889830 -10.533600 4.456000 -10.853900 -40.162701 0.000000 -50.253201 0.000000 76.098701 -2.125930 -22.655300 19.330400 -4.647790 -6.036130 -1.590550 3.331770 -46.138100 0.000000 49.822498 0.000000 -76.441803 6.913040 -18.997000 3.881364 -3.554898 -7.918353 0.000000 0.000000 5.500690 -8.432407 13.331114 4.886582 0.000000 0.000000 -42.074900 7.019381 1.143312 -8.684813 0.000000 0.000000 10.295500 8.578920 -16.546371 6.540964 0.000000 0.000000 -40.517401 
-17.522654 9.168232 47.381729 -174.393431 1.173685 -173.156319 3.010015 0.231855 -7.726104 3.431676 0.376029 -10.190622 0.000000 0.000000 0.000000 -7.662177 -3.125277 27.238468 12.461717 8.308866 -83.663541 -24.602600 8.973340 -10.592600 4.545940 -10.751800 -40.273701 0.000000 -52.234299 0.000000 76.872398 -2.228540 -22.848000 19.421000 -4.726620 -6.175130 -1.817020 3.227410 -45.793701 0.000000 52.096001 0.000000 -77.367599 6.678340 -19.630501 3.892104 -3.651933 -7.910355 0.000000 0.000000 5.513860 -8.415301 13.326442 4.896252 0.000000 0.000000 -42.112801 7.025275 1.154945 -8.646980 0.000000 0.000000 10.296000 8.581434 -16.656157 6.496960 0.000000 0.000000 -40.399500 
-17.521660 9.168392 47.376613 -174.395842 1.090595 -173.149152 3.032870 0.189581 -7.803033 3.426974 0.328864 -10.163569 0.000000 0.000000 0.000000 -7.679695 -3.102611 27.287921 12.356614 8.335608 -83.725091 -24.705601 9.086260 -10.731200 4.624780 -10.708900 -40.399399 0.000000 -54.072102 0.000000 77.552200 -2.716700 -22.936001 19.479700 -4.775370 -6.394840 -1.992630 3.101990 -45.343300 0.000000 54.330200 0.000000 -78.154900 6.492130 -20.142401 3.900178 -3.705087 -7.909207 0.000000 0.000000 5.528020 -8.472454 13.292140 4.860511 0.000000 0.000000 -42.084600 7.037260 1.144393 -8.612151 0.000000 0.000000 10.284900 8.623668 -16.723009 6.458425 0.000000 0.000000 -40.330700 
-17.520613 9.168602 47.371550 -174.405403 1.005762 -173.138386 3.050951 0.156782 -7.890700 3.410762 0.291818 -10.118532 0.000000 0.000000 0.000000 -7.697474 -3.053712 27.314272 12.360307 8.352288 -83.762323 -24.808599 9.192840 -10.849100 4.692330 -10.716000 -40.509800 0.000000 -55.843399 0.000000 78.234100 -3.127920 -22.764999 19.525499 -4.821450 -6.572900 -2.172460 2.960970 -44.933102 0.000000 56.448799 0.000000 -79.052101 6.421040 -20.416401 3.888787 -3.659083 -7.926221 0.000000 0.000000 5.570360 -8.400245 13.207661 4.873717 0.000000 0.000000 -42.064699 7.049435 1.039435 -8.588394 0.000000 0.000000 10.280800 8.613684 -16.722638 6.441677 0.000000 0.000000 -40.251801 
-17.519351 9.168965 47.365253 -174.410935 0.933556 -173.124035 3.080112 0.154744 -8.029179 3.375296 0.279977 -9.983421 0.000000 0.000000 0.000000 -7.701325 -3.018125 27.284952 12.418727 8.368496 -83.806794 -25.025299 9.073660 -11.577900 4.882160 -10.540700 -39.937698 0.000000 -57.455200 0.000000 78.757500 -3.558220 -22.754801 19.575300 -4.932830 -6.736340 -2.347110 2.905680 -44.637402 0.000000 58.391800 0.000000 -79.897598 6.355830 -20.802099 3.889311 -3.652337 -7.911762 0.000000 0.000000 5.565030 -8.477505 13.129254 4.855823 0.000000 0.000000 -42.078899 7.064723 0.945582 -8.550143 0.000000 0.000000 10.254700 8.599026 -16.717933 6.432972 0.000000 0.000000 -40.213600 
-17.518096 9.169168 47.359584 -174.417411 0.889657 -173.142582 3.098638 0.155898 -8.126780 3.316043 0.276373 -9.904507 0.000000 0.000000 0.000000 -7.636237 -3.052537 27.366847 12.395313 8.466161 -83.812511 -24.936001 9.362130 -10.914500 4.825000 -10.775500 -40.709301 0.000000 -59.113701 0.000000 79.177299 -3.616440 -22.628799 19.617201 -4.953520 -6.888310 -2.525380 2.819650 -44.302299 0.000000 60.061798 0.000000 -80.613899 6.317000 -21.167200 3.887865 -3.671128 -7.868057 0.000000 0.000000 5.568040 -8.412350 13.124097 4.859727 0.000000 0.000000 -42.070999 7.074173 0.899782 -8.473182 0.000000 0.000000 10.214700 8.575474 -16.733353 6.423319 0.000000 0.000000 -40.183701 
